classDiagram
direction LR

class Profesor {
  +int IdCatalogo1
  +string Nombre
  +bool Activo
}

class Estudiante {
  +int IdPersona_FK
  +int IdCatalogo2
  +string Nombre
  +bool Activo
}

class Curso {
  +int IdRelacion
  +int IdCatalogo1_FK
  +int IdCatalogo2_FK
  +date Fecha
  +string Estado
}

class Extra {
  +int IdExtra
  +string Nombre
  +string Correo
  +bool Activo
}

Profesor "1" --> "0..*" Curso : FK
Estudiante "1" --> "0..*" Curso : FK
Extra "1" --> "0..*" Estudiante : participa
